PathFileType	4	(X/Y/Z)	C:/Users/beibeiliu/ov580/test_trc/User1\sequence.25_training_dense_right.trc
DataRate	CameraRate	NumFrames	NumMarkers	Units	OrigDataRate	OrigDataStartFrame	OrigNumFrames
120	120	12	19	mm	120	61	242
Frame#	Time	ThumbCMC			ThumbMCP			ThumbIP			ThumbTip			IndexMCP			IndexPIP			IndexTip			MiddleMCP			MiddlePIP			MiddleTip			RingMCP			RingPIP			RingTip			PinkyMCP			PinkyPIP			PinkyTip			BackHand1			BackHand2			BackHand3	
		X0	Y0	Z0	X1	Y1	Z1	X2	Y2	Z2	X3	Y3	Z3	X4	Y4	Z4	X5	Y5	Z5	X6	Y6	Z6	X7	Y7	Z7	X8	Y8	Z8	X9	Y9	Z9	X10	Y10	Z10	X11	Y11	Z11	X12	Y12	Z12	X13	Y13	Z13	X14	Y14	Z14	X15	Y15	Z15	X16	Y16	Z16	X17	Y17	Z17	X18	Y18	Z18	
60	0.5	216.245	1.80489	64.3677	218.654	2.90968	26.404	217.198	-8.94355	-1.47064	203.507	-21.1463	-24.4579	237.972	-53.2852	-2.48929	243.787	-60.8862	-26.303	245.089	-73.2988	-48.7069	214.413	-51.5481	-15.1111	215.091	-40.8317	-42.8247	205.666	-27.7138	-76.048	181.428	-32.402	-14.3043	173.08	-2.09505	-11.655	169.258	9.60419	19.8128	160.051	-37.9679	-1.38924	163.671	-7.116	3.10482	164.768	0.492891	31.4721	183.053	-59.9731	46.307	174.958	-50.3666	81.7427	212.505	-44.0236	66.7484	
61	0.508333	219.058	2.67873	65.6486	224.72	10.5977	28.2782	223.611	-5.48555	0.00561024	210.204	-19.932	-16.8357	247.08	-45.4901	6.39169	249.812	-56.2569	-19.9926	255.48	-64.5362	-40.4928	220.285	-49.3975	-10.2998	226.048	-38.4461	-39.9908	222.226	-27.0083	-68.4359	193.481	-32.5099	-9.19507	182.454	-2.73478	-12.1583	173.973	10.9842	18.4872	172.199	-35.7359	-1.14949	166.671	-9.27613	0.837269	173.533	0.450812	35.8883	189.912	-57.1927	48.0172	179.781	-48.5364	82.9939	219.387	-37.507	72.2925	
62	0.516667	221.891	9.39719	69.54	226.807	13.7977	31.4671	229.484	-3.24525	2.40859	219.494	-16.0948	-17.0513	253.177	-38.5892	9.65125	258.329	-45.8524	-12.8317	268.599	-56.8829	-36.2075	232.73	-43.559	-12.2019	236.226	-33.2787	-35.179	231.454	-24.0868	-67.5346	199.246	-31.9471	-6.56636	189.147	3.40599	-8.5268	178.333	13.5385	23.835	177.646	-37.51	0.765546	174.726	-6.40578	3.16411	179.498	2.02075	34.7269	198.366	-52.9153	53.0364	183.687	-46.4873	86.4483	222.648	-32.4292	73.1415	
63	0.525	224.361	15.9076	69.1934	230.406	19.7617	32.4632	236.524	7.19284	5.20265	227.756	-11.2823	-17.801	262.937	-28.5739	11.6033	276.968	-33.474	-10.2971	280.262	-47.2933	-33.7379	242.436	-35.3158	-7.54197	245.134	-26.4484	-31.4266	242.15	-18.4463	-67.0775	208.659	-28.0021	-5.337	192.098	2.282	-8.9434	181.165	13.8456	19.2116	188.445	-35.479	1.05067	183.191	-7.791	0.979407	180.668	6.32996	31.51	210.514	-50.9446	51.3928	192.592	-42.2115	86.5279	230.756	-23.5609	74.9662	
64	0.533333	219.074	24.2606	72.9684	232.313	29.0779	31.9057	238.276	19.5936	7.00694	235.501	-2.69941	-14.5454	275.429	-10.564	17.5219	288.944	-17.0709	-7.47904	296.437	-29.7048	-27.9958	256.976	-21.145	-4.6261	254.706	-15.6106	-31.6632	254.554	-5.4193	-61.1281	220.152	-21.1931	-4.76839	194.723	6.76542	-8.29632	184.573	16.4558	16.9976	201.988	-31.4975	1.26034	187.848	-5.26057	1.90122	181.968	7.40549	30.4087	221.885	-44.8915	51.3741	203.282	-40.3032	85.9996	234.536	-15.3594	77.7439	
65	0.541667	218.459	31.5241	71.8443	226.698	35.9522	34.3886	238.835	28.423	8.86331	239.071	9.32538	-12.1015	280.248	6.60965	20.5461	293.657	-0.430911	-3.22513	306.712	-7.29578	-20.2929	264.078	-9.506	-6.66202	262.93	-0.71924	-28.7412	261.519	9.29158	-57.0293	229.756	-10.1717	-4.77699	203.973	10.34	-8.62676	186.497	18.7001	18.8469	212.878	-26.0041	0.561909	192.577	-4.04952	3.42395	189.947	7.35875	29.8069	232.809	-36.033	54.8495	212.848	-33.0829	86.8526	242.18	-7.56384	77.7931	
66	0.55	214.283	37.2197	70.7888	220.734	43.6378	33.8936	238.469	37.0354	6.74629	241.769	16.858	-10.9501	282.898	24.5133	19.3727	297.571	25.7948	3.56493	317.535	19.3504	-17.6272	269.987	7.572	-1.44356	268.236	15.4659	-28.3772	264.272	22.2159	-60.6553	235.109	-3.34605	-7.06043	203.856	11.1799	-9.17452	187.239	16.0711	15.3049	224.229	-22.7264	0.435029	203.136	-5.25187	-0.118175	191.423	5.66043	30.7819	246.443	-27.8494	52.4632	224.208	-29.2547	83.6535	242.652	5.13524	79.2973	
67	0.558333	209.61	40.959	70.8179	216.848	48.5517	33.3122	235.105	41.7802	8.75185	242.033	26.8684	-12.137	280.895	41.3269	20.948	296.814	45.8437	2.94892	315.652	40.7839	-15.822	271.866	26.5743	-3.99178	269.499	29.2619	-27.8165	265.439	34.327	-57.6174	244.255	1.94211	-3.96566	211.72	12.3049	-11.608	189.948	12.8873	13.2986	233.548	-19.3988	0.583145	207.456	-0.535965	2.05509	196.188	6.17203	28.2633	253.174	-15.367	55.3888	232.912	-25.5237	85.9814	246.445	17.6506	78.4941	
68	0.566667	204.52	40.0464	69.8638	209.612	49.4811	34.619	227.538	51.6955	6.09638	240.761	35.2387	-13.48	273.36	54.5831	22.7127	289.152	58.2521	4.67637	307.747	63.4885	-13.516	272.016	35.8151	-4.73616	267.43	40.9183	-27.6471	262.545	46.0137	-58.5216	246.782	9.10917	-5.59602	214.338	14.9171	-11.9056	190.444	12.3028	14.4679	241.13	-10.7947	0.310105	216.669	-0.955096	-1.15814	201.831	7.72469	29.6192	258.435	-3.58967	56.4913	241.918	-16.9633	83.3708	246.183	21.1996	77.3358	
69	0.575	204.602	36.6624	68.3119	204.523	49.1997	34.9761	224.385	54.038	7.69147	236.056	42.3775	-11.3988	266.944	71.2599	21.5001	279.824	76.5202	5.31606	297.524	81.624	-10.93	267.959	50.4586	-0.208418	262.838	56.5486	-26.2118	256.726	54.6941	-58.9784	250.546	18.8435	-3.5052	217.973	18.0427	-12.3188	195.662	5.35289	12.1676	247.147	-0.210245	0.0823671	220.402	-2.30048	-3.07976	204.858	3.36371	25.0001	264.499	5.50113	54.7849	244.611	-7.66406	87.1146	239.464	29.6419	80.904	
70	0.583333	198.305	32.4758	69.4022	199.623	47.8197	34.0082	214.436	58.0347	7.89039	233.265	48.7174	-11.9143	256.998	78.4748	20.2222	266.429	89.0331	5.57368	285.102	100.276	-11.0952	262.813	58.7595	0.95176	254.495	67.7286	-23.7554	247.172	63.7322	-56.1213	248.564	29.723	-2.59863	218.051	20.4774	-13.8031	197.532	8.23848	11.2543	250.703	8.40197	-0.852576	221.752	2.23944	-0.938693	208.067	5.60051	23.9117	264.619	16.2	53.4145	250.905	-0.519934	82.5642	239.884	35.3234	80.4039	
71	0.591667	195.511	29.4052	67.9844	189.64	45.8582	34.0782	209.905	55.0447	9.61514	229.143	52.218	-12.8062	241.532	85.6075	22.5654	253.359	95.9308	3.81296	264.372	109.23	-8.68979	249.837	71.2272	-0.932847	243.915	75.0581	-25.3564	231.273	71.771	-59.942	244.269	35.8128	-5.09374	219.49	17.5027	-14.1932	200.689	3.04397	13.8388	253.776	13.871	0.544565	226.263	7.07891	-3.42898	211.858	2.69481	22.56	264.258	24.5252	55.9552	251.451	2.76346	85.1145	232.069	35.394	80.1696	
